<svg xmlns="http://www.w3.org/2000/svg" xmlns:xlink="http://www.w3.org/1999/xlink" version="1.1" id="Camada_1" x="0px" y="0px" viewBox="0 0 182.8 48" style="enable-background:new 0 0 182.8 48;" xml:space="preserve">
<style type="text/css">
	.st0{fill-rule:evenodd;clip-rule:evenodd;fill:#898792;}
	.st1{fill:#898792;}
</style>
<path d="M152.8-164.3c-0.8,0-1.5-0.3-2.1-0.9c-0.6-0.6-0.9-1.3-0.9-2.1v-31c0-0.8,0.3-1.5,0.9-2.1c0.6-0.6,1.3-0.9,2.1-0.9h3.2v-3  h3.2v3h17v-3h3.2v3h3.2c0.8,0,1.5,0.3,2.1,0.9c0.6,0.6,0.9,1.3,0.9,2.1v31c0,0.8-0.3,1.5-0.9,2.1c-0.6,0.6-1.3,0.9-2.1,0.9H152.8z   M152.8-167.3h30v-21.5h-30V-167.3z M152.8-191.8h30v-6.5h-30V-191.8z M152.8-191.8v-6.5V-191.8z M167.8-180.3c-0.6,0-1-0.2-1.4-0.6  c-0.4-0.4-0.6-0.9-0.6-1.4s0.2-1,0.6-1.4s0.9-0.6,1.4-0.6s1,0.2,1.4,0.6s0.6,0.9,0.6,1.4s-0.2,1-0.6,1.4  C168.9-180.5,168.4-180.3,167.8-180.3z M159.8-180.3c-0.6,0-1-0.2-1.4-0.6c-0.4-0.4-0.6-0.9-0.6-1.4s0.2-1,0.6-1.4s0.9-0.6,1.4-0.6  s1,0.2,1.4,0.6s0.6,0.9,0.6,1.4s-0.2,1-0.6,1.4C160.9-180.5,160.4-180.3,159.8-180.3z M175.8-180.3c-0.6,0-1-0.2-1.4-0.6  c-0.4-0.4-0.6-0.9-0.6-1.4s0.2-1,0.6-1.4s0.9-0.6,1.4-0.6s1,0.2,1.4,0.6s0.6,0.9,0.6,1.4s-0.2,1-0.6,1.4  C176.9-180.5,176.4-180.3,175.8-180.3z M167.8-172.3c-0.6,0-1-0.2-1.4-0.6c-0.4-0.4-0.6-0.9-0.6-1.4s0.2-1,0.6-1.4s0.9-0.6,1.4-0.6  s1,0.2,1.4,0.6s0.6,0.9,0.6,1.4s-0.2,1-0.6,1.4C168.9-172.5,168.4-172.3,167.8-172.3z M159.8-172.3c-0.6,0-1-0.2-1.4-0.6  c-0.4-0.4-0.6-0.9-0.6-1.4s0.2-1,0.6-1.4s0.9-0.6,1.4-0.6s1,0.2,1.4,0.6s0.6,0.9,0.6,1.4s-0.2,1-0.6,1.4  C160.9-172.5,160.4-172.3,159.8-172.3z M175.8-172.3c-0.6,0-1-0.2-1.4-0.6c-0.4-0.4-0.6-0.9-0.6-1.4s0.2-1,0.6-1.4s0.9-0.6,1.4-0.6  s1,0.2,1.4,0.6s0.6,0.9,0.6,1.4s-0.2,1-0.6,1.4C176.9-172.5,176.4-172.3,175.8-172.3z"/>
<path class="st0" d="M22,33.9V22.7c0-0.9-0.7-1.6-1.6-1.6H7.6c-0.9,0-1.6,0.7-1.6,1.6v11.2c0,0.9,0.7,1.6,1.6,1.6h12.8  C21.3,35.5,22,34.8,22,33.9z M25.2,22.7v11.2c0,2.7-2.2,4.8-4.8,4.8H7.6c-2.7,0-4.8-2.2-4.8-4.8l0-11.2c0-2.7,2.2-4.8,4.8-4.8h12.8  C23,17.9,25.2,20,25.2,22.7z"/>
<path class="st0" d="M14,13.1c-1.8,0-3.2,1.4-3.2,3.2v3.2H7.6v-3.2c0-3.5,2.9-6.4,6.4-6.4s6.4,2.9,6.4,6.4v3.2h-3.2v-3.2  C17.2,14.5,15.7,13.1,14,13.1z"/>
<path class="st0" d="M15.6,25.9v4.8h-3.2v-4.8H15.6z"/>
<path class="st1" d="M48.4,6.2c1.2,0,2.2,0.2,3,0.6c0.8,0.4,1.5,0.9,1.9,1.6c0.4,0.7,0.7,1.6,0.7,2.6s-0.2,1.9-0.7,2.6  c-0.4,0.7-1.1,1.2-1.9,1.6s-1.8,0.6-3,0.6h-2.8v4.8h-3.7V6.2H48.4z M47.8,12.9c0.8,0,1.4-0.2,1.8-0.5c0.4-0.3,0.6-0.8,0.6-1.5  s-0.2-1.2-0.6-1.5c-0.4-0.3-1-0.5-1.8-0.5h-2.3v3.9H47.8z"/>
<path class="st1" d="M67.8,20.5H64l-1-3.2h-4.9l-1,3.2h-3.7l5-14.3h4.5L67.8,20.5z M58.8,14.7h3.5l-1.8-5.8L58.8,14.7z"/>
<path class="st1" d="M74.9,20.7c-1.3,0-2.4-0.3-3.4-0.8c-1-0.6-1.7-1.4-2.3-2.5c-0.5-1.1-0.8-2.4-0.8-4c0-1.5,0.3-2.9,0.9-4  c0.6-1.1,1.4-1.9,2.5-2.5c1.1-0.6,2.4-0.9,3.8-0.9c1.6,0,2.9,0.3,3.9,0.9c1,0.6,1.8,1.5,2.3,2.8L78.3,11c-0.2-0.7-0.5-1.3-1-1.6  c-0.5-0.3-1.1-0.5-1.8-0.5c-0.7,0-1.3,0.2-1.8,0.5c-0.5,0.3-0.9,0.8-1.1,1.5c-0.3,0.7-0.4,1.5-0.4,2.4c0,1,0.1,1.9,0.4,2.5  c0.3,0.7,0.7,1.2,1.2,1.5c0.5,0.3,1.2,0.5,2,0.5c0.4,0,0.8-0.1,1.1-0.2c0.3-0.1,0.7-0.2,0.9-0.4c0.3-0.2,0.5-0.4,0.6-0.7  c0.1-0.3,0.2-0.7,0.2-1.1v-0.2h-3.3v-2.5h6.4v7.7h-2.5l-0.3-3.4l0.6,0.5c-0.3,1-0.9,1.7-1.6,2.3C77.1,20.4,76.1,20.7,74.9,20.7z"/>
<path class="st1" d="M97.6,20.5h-3.8l-1-3.2h-4.9l-1,3.2h-3.7l5-14.3h4.5L97.6,20.5z M88.6,14.7h3.5l-1.8-5.8L88.6,14.7z"/>
<path class="st1" d="M115.8,6.2v14.3h-3.3v-6.6l0.1-4.4h0l-3.5,11h-3l-3.5-11h0l0.1,4.4v6.6h-3.3V6.2h5.3l2.3,7.3l0.8,3h0l0.8-3  l2.2-7.3H115.8z"/>
<path class="st1" d="M119,20.5V6.2h11.1V9h-7.4V12h5.9v2.7h-5.9v2.9h7.7v2.9H119z"/>
<path class="st1" d="M145.6,6.2v14.3h-4.1l-4.4-7.7l-1.1-2.1h0l0.1,2.6v7.2h-3.3V6.2h4.1l4.4,7.7l1.1,2.1h0l-0.1-2.6V6.2H145.6z"/>
<path class="st1" d="M160.8,6.2V9h-4.7v11.4h-3.7V9h-4.7V6.2H160.8z"/>
<path class="st1" d="M168.7,5.9c1.4,0,2.7,0.3,3.7,0.9c1.1,0.6,1.9,1.4,2.4,2.5s0.8,2.4,0.8,4s-0.3,2.9-0.8,4s-1.4,1.9-2.4,2.5  c-1,0.6-2.3,0.9-3.7,0.9s-2.7-0.3-3.7-0.9c-1.1-0.6-1.9-1.4-2.4-2.5s-0.8-2.4-0.8-4s0.3-2.9,0.8-4s1.4-1.9,2.4-2.5  C166,6.2,167.3,5.9,168.7,5.9z M168.7,8.9c-0.7,0-1.3,0.2-1.8,0.5c-0.5,0.3-0.8,0.8-1.1,1.5c-0.2,0.7-0.4,1.5-0.4,2.4  c0,1,0.1,1.8,0.4,2.4c0.2,0.7,0.6,1.2,1.1,1.5c0.5,0.3,1.1,0.5,1.8,0.5c0.7,0,1.3-0.2,1.7-0.5c0.5-0.3,0.8-0.8,1.1-1.5  s0.4-1.5,0.4-2.4c0-1-0.1-1.8-0.4-2.4c-0.2-0.7-0.6-1.2-1.1-1.5C170,9,169.4,8.9,168.7,8.9z"/>
<path class="st1" d="M44.2,42.1v-8.9c0-0.3,0-0.5,0-0.8c0-0.3,0-0.6,0-0.9c-0.4,0.4-1,0.8-1.5,1.1c-0.6,0.3-1.1,0.5-1.8,0.7  l-0.4-1.8c0.3,0,0.6-0.1,1-0.3c0.4-0.1,0.7-0.3,1.1-0.6c0.4-0.2,0.8-0.5,1.1-0.7c0.3-0.3,0.6-0.5,0.8-0.8h1.8v13H44.2z"/>
<path class="st1" d="M54.3,42.3c-1.6,0-2.8-0.6-3.7-1.7c-0.9-1.1-1.3-2.8-1.3-5s0.4-3.9,1.3-5c0.9-1.1,2.1-1.7,3.7-1.7  c1.6,0,2.8,0.6,3.7,1.7c0.9,1.1,1.3,2.8,1.3,5s-0.4,3.9-1.3,5C57.1,41.8,55.9,42.3,54.3,42.3z M54.3,40.5c0.6,0,1.2-0.2,1.6-0.5  c0.4-0.4,0.8-0.9,1-1.6c0.2-0.7,0.3-1.6,0.3-2.7c0-1.1-0.1-2-0.3-2.7c-0.2-0.7-0.5-1.3-1-1.6c-0.4-0.4-0.9-0.6-1.6-0.6  c-0.6,0-1.2,0.2-1.6,0.6c-0.4,0.4-0.7,0.9-0.9,1.6c-0.2,0.7-0.3,1.6-0.3,2.7c0,1.1,0.1,2,0.3,2.7c0.2,0.7,0.5,1.3,0.9,1.6  C53.2,40.4,53.7,40.5,54.3,40.5z"/>
<path class="st1" d="M66.7,42.3c-1.6,0-2.8-0.6-3.7-1.7c-0.9-1.1-1.3-2.8-1.3-5s0.4-3.9,1.3-5c0.9-1.1,2.1-1.7,3.7-1.7  c1.6,0,2.8,0.6,3.7,1.7c0.9,1.1,1.3,2.8,1.3,5s-0.4,3.9-1.3,5C69.5,41.8,68.3,42.3,66.7,42.3z M66.7,40.5c0.6,0,1.2-0.2,1.6-0.5  c0.4-0.4,0.8-0.9,1-1.6c0.2-0.7,0.3-1.6,0.3-2.7c0-1.1-0.1-2-0.3-2.7c-0.2-0.7-0.5-1.3-1-1.6c-0.4-0.4-0.9-0.6-1.6-0.6  c-0.6,0-1.2,0.2-1.6,0.6c-0.4,0.4-0.7,0.9-0.9,1.6c-0.2,0.7-0.3,1.6-0.3,2.7c0,1.1,0.1,2,0.3,2.7c0.2,0.7,0.5,1.3,0.9,1.6  C65.5,40.4,66.1,40.5,66.7,40.5z"/>
<path class="st1" d="M76.4,42.1l8.5-13h1.8l-8.5,13H76.4z M76.9,28.9c0.7,0,1.2,0.2,1.7,0.5c0.5,0.3,0.9,0.7,1.1,1.3  c0.3,0.5,0.4,1.2,0.4,1.9c0,0.7-0.1,1.4-0.4,1.9c-0.3,0.5-0.6,1-1.1,1.3c-0.5,0.3-1.1,0.5-1.7,0.5c-0.7,0-1.2-0.2-1.7-0.5  c-0.5-0.3-0.9-0.7-1.2-1.3c-0.3-0.6-0.4-1.2-0.4-1.9c0-0.7,0.1-1.4,0.4-1.9c0.3-0.5,0.7-1,1.2-1.3C75.7,29.1,76.2,28.9,76.9,28.9z   M76.9,30.5c-0.3,0-0.6,0.1-0.8,0.3c-0.2,0.2-0.4,0.4-0.5,0.7c-0.1,0.3-0.2,0.7-0.2,1.1c0,0.4,0.1,0.8,0.2,1.1  c0.1,0.3,0.3,0.6,0.5,0.7c0.2,0.2,0.5,0.2,0.8,0.2c0.3,0,0.6-0.1,0.9-0.2c0.2-0.2,0.4-0.4,0.5-0.7c0.1-0.3,0.2-0.7,0.2-1.1  c0-0.4-0.1-0.8-0.2-1.1c-0.1-0.3-0.3-0.6-0.5-0.7C77.5,30.6,77.2,30.5,76.9,30.5z M86.2,35.1c0.7,0,1.2,0.2,1.7,0.5  c0.5,0.3,0.9,0.7,1.1,1.3c0.3,0.5,0.4,1.2,0.4,1.9c0,0.7-0.1,1.4-0.4,1.9c-0.3,0.5-0.6,1-1.1,1.3c-0.5,0.3-1.1,0.5-1.7,0.5  c-0.7,0-1.2-0.2-1.7-0.5c-0.5-0.3-0.9-0.7-1.2-1.3c-0.3-0.5-0.4-1.2-0.4-1.9c0-0.7,0.1-1.4,0.4-1.9c0.3-0.6,0.7-1,1.2-1.3  C85,35.2,85.5,35.1,86.2,35.1z M86.2,36.6c-0.3,0-0.6,0.1-0.8,0.2s-0.4,0.4-0.5,0.7c-0.1,0.3-0.2,0.7-0.2,1.1c0,0.4,0.1,0.8,0.2,1.1  c0.1,0.3,0.3,0.6,0.5,0.7c0.2,0.2,0.5,0.2,0.8,0.2c0.3,0,0.6-0.1,0.9-0.2c0.2-0.2,0.4-0.4,0.5-0.7c0.1-0.3,0.2-0.7,0.2-1.1  s-0.1-0.8-0.2-1.1c-0.1-0.3-0.3-0.6-0.5-0.7S86.5,36.6,86.2,36.6z"/>
<path class="st1" d="M103,28.9c1.2,0,2.2,0.2,3,0.7c0.9,0.4,1.6,1.1,2.2,1.9l-1.4,1.4c-0.5-0.8-1.1-1.3-1.7-1.6  c-0.6-0.3-1.4-0.5-2.2-0.5c-0.6,0-1.1,0.1-1.6,0.3c-0.4,0.2-0.7,0.4-0.9,0.7c-0.2,0.3-0.3,0.6-0.3,0.9c0,0.4,0.1,0.8,0.4,1.1  c0.3,0.3,0.8,0.5,1.6,0.7l2.6,0.6c1.3,0.3,2.2,0.7,2.7,1.3c0.5,0.6,0.8,1.3,0.8,2.1c0,0.8-0.2,1.5-0.7,2.1c-0.4,0.6-1,1-1.8,1.4  c-0.8,0.3-1.7,0.5-2.7,0.5c-0.9,0-1.7-0.1-2.5-0.4c-0.7-0.2-1.4-0.6-1.9-1c-0.6-0.4-1-0.9-1.4-1.4l1.5-1.5c0.3,0.5,0.6,0.9,1,1.2  c0.4,0.4,0.9,0.6,1.5,0.8c0.6,0.2,1.2,0.3,1.9,0.3c0.6,0,1.1-0.1,1.6-0.2c0.4-0.1,0.8-0.4,1-0.6c0.2-0.3,0.4-0.6,0.4-1  c0-0.4-0.1-0.7-0.4-1c-0.2-0.3-0.7-0.5-1.4-0.7l-2.9-0.7c-0.8-0.2-1.4-0.4-2-0.7c-0.5-0.3-0.9-0.7-1.1-1.1c-0.2-0.5-0.4-1-0.4-1.5  c0-0.7,0.2-1.4,0.6-2c0.4-0.6,1-1.1,1.8-1.4C101,29.1,101.9,28.9,103,28.9z"/>
<path class="st1" d="M111.2,42.1v-13h9.4V31h-7.3v3.7h5.7v1.8h-5.7v3.9h7.6v1.8H111.2z"/>
<path class="st1" d="M128.8,42.3c-1.2,0-2.3-0.3-3.2-0.8c-0.9-0.5-1.6-1.3-2.1-2.3c-0.5-1-0.7-2.2-0.7-3.6c0-1.4,0.3-2.6,0.8-3.6  c0.5-1,1.3-1.8,2.2-2.3c1-0.6,2.1-0.8,3.3-0.8c1.4,0,2.4,0.2,3.3,0.7c0.8,0.5,1.5,1.3,2,2.3l-2,0.9c-0.2-0.7-0.7-1.3-1.2-1.6  c-0.6-0.4-1.3-0.6-2.1-0.6c-0.8,0-1.5,0.2-2.1,0.6c-0.6,0.4-1.1,0.9-1.4,1.7c-0.3,0.7-0.5,1.6-0.5,2.6c0,1,0.2,1.9,0.5,2.7  c0.3,0.7,0.8,1.3,1.4,1.7c0.6,0.4,1.4,0.6,2.3,0.6c0.5,0,0.9-0.1,1.4-0.2c0.4-0.1,0.8-0.3,1.1-0.6c0.3-0.2,0.6-0.6,0.7-0.9  c0.2-0.4,0.3-0.8,0.3-1.3v-0.4h-3.8v-1.7h5.7v6.7h-1.6l-0.1-2.6l0.4,0.2c-0.3,0.8-0.8,1.5-1.6,1.9C130.8,42.1,129.9,42.3,128.8,42.3  z"/>
<path class="st1" d="M148.1,29.1v8c0,1.7-0.5,3-1.4,3.9s-2.2,1.3-4,1.3c-1.7,0-3-0.4-3.9-1.3c-0.9-0.9-1.4-2.2-1.4-3.9v-8h2.1v7.8  c0,1.2,0.3,2.1,0.8,2.7c0.5,0.6,1.3,0.9,2.4,0.9c1.1,0,1.9-0.3,2.4-0.9c0.5-0.6,0.8-1.5,0.8-2.7v-7.8H148.1z"/>
<path class="st1" d="M157,29.1c1.4,0,2.5,0.3,3.3,1c0.8,0.7,1.2,1.6,1.2,2.8c0,1.2-0.4,2.2-1.2,2.8c-0.8,0.7-1.9,1-3.3,1l-0.2,0.1  h-3v5.2h-2.1v-13H157z M156.9,35.2c0.9,0,1.5-0.2,1.9-0.5c0.4-0.4,0.6-0.9,0.6-1.6c0-0.7-0.2-1.2-0.6-1.6c-0.4-0.4-1-0.5-1.9-0.5  h-3.1v4.3H156.9z M158.1,35.6l4.2,6.5h-2.4l-3.6-5.7L158.1,35.6z"/>
<path class="st1" d="M170.2,28.9c1.3,0,2.4,0.3,3.3,0.8c0.9,0.5,1.6,1.3,2.1,2.3c0.5,1,0.7,2.2,0.7,3.6s-0.2,2.6-0.7,3.6  c-0.5,1-1.2,1.8-2.1,2.3c-0.9,0.5-2,0.8-3.3,0.8c-1.2,0-2.3-0.3-3.3-0.8c-0.9-0.5-1.6-1.3-2.1-2.3c-0.5-1-0.7-2.2-0.7-3.6  s0.2-2.6,0.7-3.6c0.5-1,1.2-1.8,2.1-2.3C167.9,29.2,169,28.9,170.2,28.9z M170.2,30.8c-0.8,0-1.5,0.2-2.1,0.6  c-0.6,0.4-1,0.9-1.3,1.7c-0.3,0.7-0.5,1.6-0.5,2.6c0,1,0.2,1.9,0.5,2.6c0.3,0.7,0.8,1.3,1.3,1.7c0.6,0.4,1.3,0.6,2.1,0.6  c0.8,0,1.5-0.2,2.1-0.6c0.6-0.4,1-0.9,1.4-1.7c0.3-0.7,0.5-1.6,0.5-2.6c0-1-0.2-1.9-0.5-2.6c-0.3-0.7-0.8-1.3-1.4-1.7  C171.8,31,171.1,30.8,170.2,30.8z"/>
</svg>