<svg xmlns="http://www.w3.org/2000/svg" xmlns:xlink="http://www.w3.org/1999/xlink" width="120px" viewBox="0 0 882 193" version="1.1">
<g xmlns="http://www.w3.org/2000/svg">
    <g>
      <g>
        <path d="M232.93,148.39H208.12v-115h82.62q17.42,0,28,10.18a33.3,33.3,0,0,1,10.59,25q0,16.92-10.67,26t-27.93,9H232.93Zm-.17-94.78V83.34h53.88q9.19,0,13.55-3.53t4.35-11.25q0-7.73-4.35-11.33t-13.55-3.62Z" fill="#ffffff"></path>
        <path d="M384.53,151q-22.33,0-35.89-12t-13.55-31.7q0-19.71,13.55-31.7t35.89-12q22,0,35.56,10.27t13.88,27v13.47H359.73q2,9.36,9.77,13.55t23.24,4.19q4.77,0,9.2-.42a72.61,72.61,0,0,0,7.31-1,56,56,0,0,0,6.41-1.73q3.52-1.14,5.17-1.8t5-2.14l4.52-2V143a134.09,134.09,0,0,1-21.52,6.32Q399.65,151,384.53,151m-25.29-48,51.24-1.15A17.16,17.16,0,0,0,403,88q-7.14-5.17-18.48-5.17-10.51,0-17.41,5.42a20.68,20.68,0,0,0-7.88,14.78" fill="#ffffff"></path>
        <path d="M515.77,63.63q20.21,0,32.85,12.24T561.26,108q0,19-12.23,31t-30.31,12q-15.77,0-27.59-7.63a32.25,32.25,0,0,1-14.62-21.6h-.66v59.46H451.22v-115h25.29L472.9,93h2a34.87,34.87,0,0,1,14.29-21.27q11.32-8.13,26.61-8.13m-6.9,19.22q-11.83,0-20.2,6.73t-8.38,18.07a21.19,21.19,0,0,0,8.38,17.58q8.37,6.57,20.2,6.57,12.32,0,20.28-6.49t8-17.66q0-11.49-8-18.15t-20.28-6.65" fill="#ffffff"></path>
        <path d="M641.58,63.63q20.2,0,32.85,12.24T687.08,108q0,19-12.24,31t-30.3,12q-15.76,0-27.59-7.63a32.22,32.22,0,0,1-14.62-21.6h-.66v59.46H577v-115h25.3L598.71,93h2A35,35,0,0,1,615,71.76q11.34-8.13,26.61-8.13m-6.89,19.22q-11.84,0-20.21,6.73t-8.38,18.07a21.22,21.22,0,0,0,8.38,17.58q8.38,6.57,20.21,6.57,12.31,0,20.28-6.49t8-17.66q0-11.49-8-18.15t-20.28-6.65" fill="#ffffff"></path>
        <path d="M746.38,151q-22.35,0-35.89-12t-13.55-31.7q0-19.71,13.55-31.7t35.89-12q22,0,35.56,10.27t13.88,27v13.47H721.57q2,9.36,9.78,13.55t23.24,4.19q4.75,0,9.2-.42a73,73,0,0,0,7.31-1,55.84,55.84,0,0,0,6.4-1.73c2.36-.76,4.08-1.36,5.18-1.8s2.76-1.15,5-2.14l4.51-2V143a133.71,133.71,0,0,1-21.51,6.32Q761.48,151,746.38,151m-25.3-48,51.25-1.15A17.14,17.14,0,0,0,764.85,88q-7.14-5.17-18.47-5.17-10.51,0-17.41,5.42a20.72,20.72,0,0,0-7.89,14.78" fill="#ffffff"></path>
        <path d="M835.57,148.39H810.93V66.26h26.94l-3.29,30.55h1.64q3.28-17.9,14-25.54t33-7.64V84.49q-25.62,0-36.63,8.3t-11,28Z" fill="#ffffff"></path>
        <path d="M37.92,173.11c.21.11.41.23.61.32a70.74,70.74,0,0,0,19.75,6.8l1.1.35v1.65a11,11,0,0,0,11,11H92.94V179.15A90.55,90.55,0,0,0,137.39,27.47,90,90,0,0,0,74.6.36L56.11,0V40.39a71.46,71.46,0,0,0-52.46,47,2.36,2.36,0,0,0-.28.12,72.51,72.51,0,0,0,34.55,85.58m-1.43-67.33A35.05,35.05,0,0,1,71.06,75,21.6,21.6,0,0,0,86,69.09,20.9,20.9,0,0,0,92.37,54V40.31A54.25,54.25,0,0,1,76.05,145.05l-.13-.06-4.27.16-2.51-.05c-1.18-.08-2.34-.21-3.5-.4l-.59-.1a35.07,35.07,0,0,1-28.19-27.86l-.21-1.09a28.36,28.36,0,0,1-.3-8.77Z" style="fill: #e02932"></path>
      </g>
    </g>
  </g>
  </svg>